<svg width="214" height="48" viewBox="0 0 214 48" fill="none" xmlns="http://www.w3.org/2000/svg">
<path d="M53.8318 0C53.0838 0 52.6562 0.0297734 52.6562 0.0297734C72.8079 0.833683 69.1567 26.5459 68.6157 29.7599C67.1637 38.3865 61.0415 47.7043 52.6562 47.7043C79.5702 47.7043 79.5702 28.1529 79.5598 23.83C79.5486 19.318 78.5097 15.2912 76.5846 11.6378C70.902 0.8538 57.8354 0 53.839 0H53.8318Z" fill="#E0DFD1"/>
<path d="M14.1071 39.1187C14.1071 41.4596 14.5618 43.4553 15.4712 45.039C16.4158 46.6564 17.616 47.985 18.945 47.985L18.8291 47.9995H0.360408L0 47.9842C1.29379 47.9842 2.77378 46.6564 3.6832 45.039C4.62777 43.4553 5.08247 41.4596 5.08247 39.1187V9.06985C5.08247 6.72975 4.62777 4.76705 3.6832 3.14957C2.77378 1.5667 1.29379 0.238922 0 0.238922L0.360408 0.223633H18.8291L18.945 0.237313C17.616 0.237313 16.4158 1.5667 15.4712 3.14957C14.5618 4.76705 14.1071 6.72975 14.1071 9.06985" fill="#E0DFD1"/>
<path d="M36.3198 23.8365V9.07003C36.3198 6.72992 35.8299 4.76803 34.9205 3.14975C34.0111 1.56687 32.5079 0.239094 31.2133 0.239094L31.5977 0.224609H50.0313L50.1296 0.237485C48.835 0.237485 47.6179 1.56687 46.7085 3.14975C45.7639 4.76803 45.3092 6.72992 45.3092 9.07003V39.1189C45.3092 41.4598 45.7639 43.4563 46.7085 45.0391C47.6179 46.6566 48.835 47.9844 50.1296 47.9844L50.0313 47.9997H31.5977L31.2109 47.9852C32.5055 47.9852 34.0111 46.6566 34.9205 45.0391C35.8299 43.4563 36.3198 41.4598 36.3198 39.1189V24.387" fill="#E0DFD1"/>
<path d="M95.8236 47.9922H77.7537L77.4492 47.9793C78.743 47.9793 80.1671 46.6507 81.1116 45.0349C82.021 43.4182 82.4758 41.4579 82.4758 39.1194V9.09794C82.4758 6.75944 82.021 4.79916 81.1116 3.18329C80.1671 1.60122 79.0011 0.273446 77.7065 0.273446L77.7537 0.259766H95.8236L95.9723 0.27425C94.6777 0.27425 93.4103 1.60122 92.4657 3.18329C91.5563 4.79916 91.1016 6.75944 91.1016 9.09794V39.1194C91.1016 41.4579 91.5563 43.4182 92.4657 45.0349C93.4103 46.6507 94.6417 47.9785 95.9355 47.9785L95.8236 47.9922Z" fill="#E0DFD1"/>
<path d="M116.507 10.9741C115.134 3.41136 106.812 0.215837 99.9414 0.188477C111.273 0.233541 111.152 30.082 99.9414 30.0498C112.188 30.0852 118.683 22.813 116.507 10.9741Z" fill="#E0DFD1"/>
<path d="M13.3233 23.7988H39.9336V24.6478H13.3233V23.7988Z" fill="#E0DFD1"/>
<path d="M131.477 14.4695V1.49023H133.275V7.09829H136.585V1.49023H138.383V14.4695H136.585V8.39629H133.275V14.4695H131.477Z" fill="#E0DFD1"/>
<path d="M143.697 14.6129C142.827 14.6129 142.132 14.4423 141.612 14.1003C141.093 13.7583 140.721 13.2698 140.499 12.6341C140.276 11.9984 140.164 11.2532 140.164 10.3986V5.47939C140.164 4.62478 140.278 3.89007 140.507 3.27608C140.735 2.66208 141.105 2.19213 141.62 1.86622C142.135 1.54031 142.827 1.37695 143.697 1.37695C144.566 1.37695 145.256 1.54272 145.766 1.87427C146.275 2.205 146.643 2.67496 146.872 3.28413C147.1 3.89329 147.214 4.62478 147.214 5.47939V10.4147C147.214 11.2588 147.1 11.996 146.872 12.6261C146.643 13.2561 146.275 13.7454 145.766 14.0922C145.256 14.4391 144.566 14.6129 143.697 14.6129ZM143.697 13.1869C144.174 13.1869 144.535 13.088 144.779 12.89C145.023 12.6928 145.187 12.4152 145.272 12.0571C145.357 11.699 145.4 11.2798 145.4 10.7993V5.11083C145.4 4.62961 145.357 4.21598 145.272 3.86915C145.187 3.52232 145.023 3.25435 144.779 3.06766C144.535 2.88096 144.174 2.78762 143.697 2.78762C143.22 2.78762 142.856 2.88096 142.607 3.06766C142.358 3.25435 142.191 3.52232 142.106 3.86915C142.02 4.21598 141.978 4.62961 141.978 5.11083V10.7993C141.978 11.2798 142.02 11.699 142.106 12.0571C142.191 12.4152 142.358 12.6928 142.607 12.89C142.856 13.088 143.22 13.1869 143.697 13.1869Z" fill="#E0DFD1"/>
<path d="M152.308 14.6135C151.375 14.6135 150.659 14.4268 150.16 14.0526C149.661 13.6792 149.322 13.153 149.141 12.4746C148.961 11.7962 148.871 11.0028 148.871 10.095V1.49023H150.589V10.1747C150.589 10.7308 150.627 11.2377 150.701 11.6972C150.775 12.1567 150.937 12.5196 151.186 12.7868C151.436 13.054 151.809 13.1876 152.308 13.1876C152.817 13.1876 153.194 13.054 153.438 12.7868C153.682 12.5196 153.841 12.1567 153.915 11.6972C153.99 11.2377 154.027 10.7308 154.027 10.1747V1.49023H155.729V10.095C155.729 11.0028 155.639 11.7962 155.459 12.4746C155.279 13.153 154.942 13.6792 154.448 14.0526C153.955 14.4268 153.242 14.6135 152.308 14.6135Z" fill="#E0DFD1"/>
<path d="M160.663 14.6129C159.921 14.6129 159.303 14.4528 158.809 14.1317C158.316 13.8114 157.942 13.3688 157.687 12.8023C157.433 12.2358 157.285 11.5791 157.242 10.8315L158.833 10.3986C158.865 10.8581 158.937 11.3015 159.048 11.7288C159.159 12.1561 159.342 12.5053 159.597 12.7781C159.851 13.0501 160.207 13.1869 160.663 13.1869C161.13 13.1869 161.483 13.0558 161.721 12.7942C161.96 12.5327 162.079 12.1561 162.079 11.6644C162.079 11.077 161.947 10.6046 161.681 10.2465C161.416 9.88841 161.082 9.5279 160.679 9.16498L158.515 7.24171C158.091 6.86832 157.778 6.45953 157.576 6.01613C157.375 5.57273 157.274 5.02553 157.274 4.37371C157.274 3.42334 157.544 2.68622 158.085 2.16235C158.626 1.63929 159.364 1.37695 160.297 1.37695C160.806 1.37695 161.255 1.44374 161.642 1.57733C162.029 1.71091 162.353 1.91692 162.612 2.19454C162.872 2.47217 163.079 2.82222 163.233 3.24389C163.387 3.66636 163.491 4.15965 163.543 4.72617L162.016 5.14301C161.984 4.71571 161.92 4.32301 161.825 3.96491C161.729 3.60762 161.562 3.31873 161.323 3.09985C161.085 2.88096 160.743 2.77152 160.297 2.77152C159.851 2.77152 159.505 2.89142 159.255 3.13203C159.006 3.37184 158.881 3.72752 158.881 4.19748C158.881 4.59259 158.948 4.9185 159.08 5.1752C159.213 5.4311 159.427 5.69344 159.724 5.9598L161.904 7.88307C162.393 8.31037 162.822 8.82056 163.193 9.41283C163.565 10.0059 163.75 10.7084 163.75 11.5204C163.75 12.1609 163.618 12.7138 163.352 13.1789C163.087 13.6432 162.724 13.9989 162.262 14.2443C161.801 14.4898 161.268 14.6129 160.663 14.6129Z" fill="#E0DFD1"/>
<path d="M167.008 1.49023H165.242V14.4695H167.008V1.49023Z" fill="#E0DFD1"/>
<path d="M169.094 14.4695V1.49023H170.319L173.979 10.1111V1.49023H175.475V14.4695H174.329L170.622 5.60876V14.4695H169.094Z" fill="#E0DFD1"/>
<path d="M180.568 14.629C179.761 14.629 179.117 14.456 178.635 14.1083C178.151 13.7615 177.801 13.2569 177.584 12.5939C177.366 11.9316 177.258 11.1357 177.258 10.2063V5.86404C177.258 4.91367 177.356 4.10413 177.553 3.43622C177.748 2.76911 178.098 2.25892 178.603 1.90645C179.106 1.55399 179.809 1.37695 180.711 1.37695C181.517 1.37695 182.167 1.51375 182.66 1.78575C183.154 2.05855 183.512 2.47458 183.735 3.03627C183.957 3.59716 184.069 4.3045 184.069 5.15911V5.63952H182.382V5.23878C182.382 4.67306 182.344 4.21116 182.271 3.85306C182.196 3.49496 182.045 3.2278 181.817 3.05156C181.589 2.87533 181.23 2.78762 180.743 2.78762C180.212 2.78762 179.828 2.91074 179.589 3.15618C179.351 3.40161 179.202 3.73557 179.144 4.15724C179.085 4.57971 179.056 5.05771 179.056 5.59205V10.3986C179.056 11.0182 179.101 11.5365 179.192 11.9533C179.281 12.3702 179.454 12.68 179.709 12.8828C179.963 13.0855 180.323 13.1869 180.791 13.1869C181.257 13.1869 181.618 13.0751 181.873 12.8506C182.127 12.6261 182.302 12.2953 182.398 11.8567C182.493 11.419 182.541 10.8742 182.541 10.2224V9.32511H180.902V8.0432H184.164V14.4688H183.034L182.859 12.9785C182.69 13.4597 182.424 13.8548 182.064 14.1647C181.703 14.4737 181.205 14.629 180.568 14.629Z" fill="#E0DFD1"/>
<path d="M188.953 14.4695L191.69 1.49023H193.424L196.177 14.4695H194.475L193.886 11.2007H191.26L190.64 14.4695H188.953ZM191.499 9.90272H193.647L192.565 4.05405L191.499 9.90272Z" fill="#E0DFD1"/>
<path d="M197.484 14.4695V1.49023H198.709L202.369 10.1111V1.49023H203.865V14.4695H202.719L199.012 5.60876V14.4695H197.484Z" fill="#E0DFD1"/>
<path d="M205.883 14.4695V1.49023H208.684C209.638 1.49023 210.394 1.6375 210.951 1.93122C211.508 2.22494 211.906 2.66512 212.145 3.25256C212.383 3.8408 212.503 4.57229 212.503 5.44782V10.223C212.503 11.142 212.383 11.9169 212.145 12.5462C211.906 13.1771 211.518 13.6551 210.983 13.981C210.447 14.3069 209.728 14.4695 208.827 14.4695H205.883ZM207.681 13.1715H208.7C209.357 13.1715 209.823 13.0435 210.1 12.7868C210.376 12.5309 210.543 12.1567 210.601 11.665C210.659 11.1742 210.689 10.5811 210.689 9.88662V5.67233C210.689 4.99959 210.646 4.4548 210.561 4.03796C210.476 3.62112 210.291 3.31694 210.004 3.12461C209.718 2.93228 209.267 2.83652 208.652 2.83652H207.681V13.1715Z" fill="#E0DFD1"/>
<path d="M131.477 30.8933V17.9141H134.278C135.232 17.9141 135.988 18.0613 136.545 18.3542C137.102 18.6488 137.5 19.0889 137.739 19.6764C137.977 20.2646 138.097 20.9961 138.097 21.8716V26.6468C138.097 27.5658 137.977 28.3399 137.739 28.97C137.5 29.6009 137.112 30.0789 136.577 30.4048C136.04 30.7307 135.322 30.8933 134.421 30.8933H131.477ZM133.275 29.5953H134.293C134.95 29.5953 135.417 29.4673 135.694 29.2106C135.969 28.9547 136.136 28.5805 136.195 28.0889C136.253 27.598 136.283 27.0049 136.283 26.3104V22.0962C136.283 21.4234 136.239 20.8786 136.155 20.4618C136.07 20.0449 135.885 19.7408 135.598 19.5484C135.312 19.3561 134.861 19.2595 134.246 19.2595H133.275V29.5953Z" fill="#E0DFD1"/>
<path d="M139.863 30.8933V17.9141H144.86V19.2595H141.661V23.5543H144.255V24.8362H141.661V29.5953H144.891V30.8933H139.863Z" fill="#E0DFD1"/>
<path d="M148.583 30.8933L145.703 17.9141H147.39L149.426 27.4805L151.368 17.9141H153.007L150.158 30.8933H148.583Z" fill="#E0DFD1"/>
<path d="M154.375 30.8933V17.9141H159.372V19.2595H156.173V23.5543H158.767V24.8362H156.173V29.5953H159.403V30.8933H154.375Z" fill="#E0DFD1"/>
<path d="M160.852 30.8933V17.9141H162.65V29.5953H165.944V30.8933H160.852Z" fill="#E0DFD1"/>
<path d="M170.369 31.0377C169.499 31.0377 168.804 30.8671 168.284 30.5251C167.765 30.1831 167.393 29.6946 167.171 29.0589C166.948 28.4232 166.836 27.678 166.836 26.8234V21.9042C166.836 21.0496 166.95 20.3157 167.179 19.7009C167.407 19.0869 167.777 18.6169 168.292 18.291C168.807 17.9651 169.499 17.8018 170.369 17.8018C171.238 17.8018 171.928 17.9675 172.438 18.2991C172.947 18.6298 173.315 19.0998 173.544 19.7089C173.772 20.3181 173.886 21.0496 173.886 21.9042V26.8395C173.886 27.6836 173.772 28.4208 173.544 29.0509C173.315 29.6809 172.947 30.1702 172.438 30.517C171.928 30.8639 171.238 31.0377 170.369 31.0377ZM170.369 29.6117C170.846 29.6117 171.207 29.5128 171.451 29.3148C171.695 29.1176 171.859 28.84 171.944 28.4819C172.029 28.1238 172.072 27.7046 172.072 27.2242V21.5356C172.072 21.0544 172.029 20.6408 171.944 20.294C171.859 19.9471 171.695 19.6792 171.451 19.4925C171.207 19.3058 170.846 19.2124 170.369 19.2124C169.892 19.2124 169.528 19.3058 169.279 19.4925C169.03 19.6792 168.863 19.9471 168.778 20.294C168.692 20.6408 168.65 21.0544 168.65 21.5356V27.2242C168.65 27.7046 168.692 28.1238 168.778 28.4819C168.863 28.84 169.03 29.1176 169.279 29.3148C169.528 29.5128 169.892 29.6117 170.369 29.6117Z" fill="#E0DFD1"/>
<path d="M175.652 30.8933V17.9141H178.85C179.625 17.9141 180.243 18.0557 180.704 18.339C181.166 18.6214 181.503 19.0302 181.715 19.5645C181.927 20.0989 182.033 20.745 182.033 21.5031C182.033 22.1871 181.914 22.7802 181.675 23.2823C181.436 23.7845 181.084 24.1715 180.617 24.4435C180.15 24.7163 179.567 24.8523 178.866 24.8523H177.45V30.8933H175.652ZM177.45 23.5543H178.278C178.798 23.5543 179.206 23.4956 179.503 23.3781C179.8 23.2606 180.012 23.0554 180.139 22.7617C180.267 22.4679 180.33 22.0535 180.33 21.5192C180.33 20.9004 180.286 20.4248 180.195 20.0932C180.105 19.7625 179.917 19.5323 179.63 19.4044C179.344 19.2764 178.898 19.2121 178.293 19.2121H177.45V23.5543Z" fill="#E0DFD1"/>
<path d="M183.258 30.8933L183.497 17.9141H185.263L187.538 28.4413L189.83 17.9141H191.58L191.819 30.8933H190.371L190.228 21.4717L188.048 30.8933H187.029L184.865 21.4717L184.722 30.8933H183.258Z" fill="#E0DFD1"/>
<path d="M193.789 30.8933V17.9141H198.786V19.2595H195.587V23.5543H198.181V24.8362H195.587V29.5953H198.817V30.8933H193.789Z" fill="#E0DFD1"/>
<path d="M200.266 30.8933V17.9141H201.491L205.151 26.535V17.9141H206.647V30.8933H205.501L201.794 22.0318V30.8933H200.266Z" fill="#E0DFD1"/>
<path d="M207.906 17.915V19.2605H210.086V30.8943H211.884V19.2605H214V17.915H207.906Z" fill="#E0DFD1"/>
<path d="M131.477 47.3181V34.3389H134.675C135.449 34.3389 136.068 34.4805 136.529 34.7638C136.991 35.0462 137.327 35.455 137.54 35.9893C137.751 36.5237 137.858 37.1699 137.858 37.9279C137.858 38.6119 137.739 39.205 137.5 39.7071C137.261 40.2093 136.908 40.5963 136.442 40.8683C135.974 41.1411 135.392 41.2771 134.691 41.2771H133.275V47.3181H131.477ZM133.275 39.9791H134.103C134.622 39.9791 135.03 39.9204 135.328 39.8029C135.624 39.6854 135.837 39.4802 135.964 39.1865C136.092 38.8927 136.155 38.4783 136.155 37.944C136.155 37.3252 136.11 36.8496 136.02 36.518C135.929 36.1873 135.742 35.9571 135.455 35.8292C135.169 35.7012 134.723 35.6369 134.118 35.6369H133.275V39.9791Z" fill="#E0DFD1"/>
<path d="M139.117 47.3181V34.3389H141.711C142.57 34.3389 143.281 34.4539 143.843 34.6833C144.405 34.9134 144.822 35.282 145.092 35.789C145.363 36.2967 145.498 36.9614 145.498 37.7838C145.498 38.286 145.445 38.7431 145.339 39.1543C145.233 39.5655 145.063 39.9123 144.83 40.1956C144.596 40.4788 144.289 40.684 143.907 40.8128L145.737 47.3181H144.002L142.315 41.2288H140.915V47.3181H139.117ZM140.915 39.9308H141.599C142.109 39.9308 142.522 39.8673 142.84 39.7393C143.159 39.6105 143.393 39.3917 143.541 39.0819C143.689 38.772 143.763 38.3399 143.763 37.7838C143.763 37.0258 143.626 36.4778 143.35 36.1414C143.074 35.8051 142.528 35.6369 141.711 35.6369H140.915V39.9308Z" fill="#E0DFD1"/>
<path d="M150.623 47.4625C149.753 47.4625 149.058 47.2919 148.539 46.9499C148.018 46.6079 147.647 46.1194 147.425 45.4837C147.202 44.848 147.09 44.1028 147.09 43.2482V38.329C147.09 37.4744 147.204 36.7405 147.433 36.1257C147.66 35.5117 148.031 35.0417 148.546 34.7158C149.061 34.3899 149.753 34.2266 150.623 34.2266C151.492 34.2266 152.182 34.3923 152.692 34.7239C153.201 35.0546 153.569 35.5246 153.798 36.1337C154.026 36.7429 154.14 37.4744 154.14 38.329V43.2643C154.14 44.1085 154.026 44.8456 153.798 45.4757C153.569 46.1058 153.201 46.595 152.692 46.9418C152.182 47.2887 151.492 47.4625 150.623 47.4625ZM150.623 46.0365C151.1 46.0365 151.461 45.9376 151.705 45.7396C151.949 45.5425 152.113 45.2648 152.198 44.9067C152.283 44.5486 152.326 44.1294 152.326 43.649V37.9604C152.326 37.4792 152.283 37.0656 152.198 36.7188C152.113 36.3719 151.949 36.1048 151.705 35.9173C151.461 35.7306 151.1 35.6372 150.623 35.6372C150.146 35.6372 149.782 35.7306 149.533 35.9173C149.283 36.1048 149.116 36.3719 149.032 36.7188C148.946 37.0656 148.904 37.4792 148.904 37.9604V43.649C148.904 44.1294 148.946 44.5486 149.032 44.9067C149.116 45.2648 149.283 45.5425 149.533 45.7396C149.782 45.9376 150.146 46.0365 150.623 46.0365Z" fill="#E0DFD1"/>
<path d="M155.902 47.3181V34.3389H159.1C159.875 34.3389 160.493 34.4805 160.954 34.7638C161.416 35.0462 161.753 35.455 161.965 35.9893C162.177 36.5237 162.283 37.1699 162.283 37.9279C162.283 38.6119 162.164 39.205 161.925 39.7071C161.686 40.2093 161.334 40.5963 160.867 40.8683C160.4 41.1411 159.816 41.2771 159.116 41.2771H157.7V47.3181H155.902ZM157.7 39.9791H158.528C159.048 39.9791 159.456 39.9204 159.753 39.8029C160.05 39.6854 160.262 39.4802 160.389 39.1865C160.517 38.8927 160.58 38.4783 160.58 37.944C160.58 37.3252 160.536 36.8496 160.445 36.518C160.355 36.1873 160.167 35.9571 159.88 35.8292C159.594 35.7012 159.148 35.6369 158.543 35.6369H157.7V39.9791Z" fill="#E0DFD1"/>
<path d="M163.543 34.3389V47.3181H168.572V46.0201H165.342V41.261H167.935V39.9791H165.342V35.6843H168.54V34.3389H163.543Z" fill="#E0DFD1"/>
<path d="M170.02 47.3181V34.3389H172.614C173.473 34.3389 174.183 34.4539 174.746 34.6833C175.308 34.9134 175.725 35.282 175.995 35.789C176.266 36.2967 176.401 36.9614 176.401 37.7838C176.401 38.286 176.347 38.7431 176.242 39.1543C176.135 39.5655 175.965 39.9123 175.733 40.1956C175.498 40.4788 175.192 40.684 174.81 40.8128L176.64 47.3181H174.905L173.218 41.2288H171.818V47.3181H170.02ZM171.818 39.9308H172.502C173.011 39.9308 173.425 39.8673 173.743 39.7393C174.062 39.6105 174.295 39.3917 174.444 39.0819C174.591 38.772 174.666 38.3399 174.666 37.7838C174.666 37.0258 174.528 36.4778 174.253 36.1414C173.976 35.8051 173.43 35.6369 172.614 35.6369H171.818V39.9308Z" fill="#E0DFD1"/>
<path d="M177.289 34.3389V35.6843H179.47V47.3181H181.268V35.6843H183.384V34.3389H177.289Z" fill="#E0DFD1"/>
<path d="M186.488 34.3389H184.723V47.3181H186.488V34.3389Z" fill="#E0DFD1"/>
<path d="M188.57 34.3389V47.3181H193.598V46.0201H190.368V41.261H192.962V39.9791H190.368V35.6843H193.566V34.3389H188.57Z" fill="#E0DFD1"/>
<path d="M198.085 47.4625C197.343 47.4625 196.725 47.3024 196.231 46.9821C195.738 46.661 195.364 46.2184 195.109 45.6519C194.855 45.0854 194.706 44.4287 194.664 43.6811L196.255 43.2482C196.287 43.7077 196.359 44.1511 196.47 44.5784C196.581 45.0057 196.764 45.355 197.019 45.6278C197.273 45.9005 197.629 46.0365 198.085 46.0365C198.552 46.0365 198.904 45.9054 199.143 45.6438C199.382 45.3823 199.501 45.0057 199.501 44.514C199.501 43.9266 199.369 43.4542 199.103 43.0961C198.838 42.738 198.504 42.3775 198.101 42.0146L195.937 40.0913C195.513 39.7179 195.199 39.3091 194.998 38.8657C194.797 38.4223 194.696 37.8751 194.696 37.2233C194.696 36.273 194.966 35.5358 195.507 35.012C196.048 34.4889 196.786 34.2266 197.719 34.2266C198.228 34.2266 198.676 34.2934 199.064 34.4269C199.451 34.5613 199.775 34.7665 200.034 35.0442C200.294 35.3218 200.501 35.6718 200.655 36.0935C200.809 36.516 200.912 37.0101 200.965 37.5758L199.438 37.9926C199.406 37.5653 199.342 37.1726 199.247 36.8145C199.151 36.4572 198.984 36.1683 198.745 35.9495C198.507 35.7306 198.165 35.6211 197.719 35.6211C197.273 35.6211 196.926 35.741 196.677 35.9816C196.428 36.2214 196.303 36.5771 196.303 37.0471C196.303 37.4422 196.369 37.7681 196.502 38.0248C196.635 38.2807 196.849 38.543 197.146 38.8094L199.326 40.7327C199.814 41.16 200.244 41.6702 200.615 42.2624C200.987 42.8555 201.172 43.558 201.172 44.37C201.172 45.0105 201.04 45.5634 200.774 46.0285C200.509 46.4928 200.146 46.8485 199.684 47.0939C199.223 47.3394 198.69 47.4625 198.085 47.4625Z" fill="#E0DFD1"/>
</svg>
